{
  "accessors": [
    {
      "bufferView": 0,
      "componentType": 5126,
      "count": 2208,
      "type": "VEC3",
      "max": [
        40.959999084472656,
        40.959999084472656,
        40.959999084472656
      ],
      "min": [
        -40.959999084472656,
        -40.959999084472656,
        -40.959999084472656
      ]
    },
    {
      "bufferView": 1,
      "componentType": 5126,
      "count": 2208,
      "type": "VEC3",
      "max": [
        0.9999690055847168,
        1,
        0.999845027923584
      ],
      "min": [
        -0.9996901750564575,
        -1,
        -0.9998760223388672
      ]
    },
    {
      "bufferView": 2,
      "componentType": 5126,
      "count": 2208,
      "type": "VEC4",
      "max": [
        0.9999529123306274,
        0.024546915665268898,
        1,
        1
      ],
      "min": [
        -1,
        -0.030108097940683365,
        -1,
        -1
      ]
    },
    {
      "bufferView": 3,
      "componentType": 5126,
      "count": 2208,
      "type": "VEC2",
      "max": [
        1,
        1
      ],
      "min": [
        0,
        0.00048828125
      ]
    },
    {
      "bufferView": 4,
      "componentType": 5126,
      "count": 2208,
      "type": "VEC2",
      "max": [
        1,
        1
      ],
      "min": [
        0,
        0
      ]
    },
    {
      "bufferView": 5,
      "componentType": 5125,
      "count": 11904,
      "type": "SCALAR",
      "max": [
        2207
      ],
      "min": [
        0
      ]
    }
  ],
  "asset": {
    "generator": "Plattar UnityGLTF (2021.3.6f1c1)",
    "version": "2.0"
  },
  "buffers": [
    {
      "uri": "SM_SkySphere.bin",
      "byteLength": 171264
    }
  ],
  "bufferViews": [
    {
      "buffer": 0,
      "byteLength": 26496
    },
    {
      "buffer": 0,
      "byteOffset": 26496,
      "byteLength": 26496
    },
    {
      "buffer": 0,
      "byteOffset": 52992,
      "byteLength": 35328
    },
    {
      "buffer": 0,
      "byteOffset": 88320,
      "byteLength": 17664
    },
    {
      "buffer": 0,
      "byteOffset": 105984,
      "byteLength": 17664
    },
    {
      "buffer": 0,
      "byteOffset": 123648,
      "byteLength": 47616
    }
  ],
  "materials": [
    {
      "pbrMetallicRoughness": {
        "baseColorFactor": [
          0.2158605,
          0.2158605,
          0.2158605,
          1
        ],
        "metallicFactor": 0
      },
      "name": "M_Sky_Panning_Clouds2"
    }
  ],
  "meshes": [
    {
      "primitives": [
        {
          "attributes": {
            "POSITION": 0,
            "NORMAL": 1,
            "TANGENT": 2,
            "TEXCOORD_0": 3,
            "TEXCOORD_1": 4
          },
          "indices": 5,
          "material": 0
        }
      ],
      "name": "SM_SkySphere"
    }
  ],
  "nodes": [
    {
      "mesh": 0,
      "rotation": [
        0,
        0,
        0,
        -1
      ],
      "name": "SM_SkySphere"
    }
  ],
  "scene": 0,
  "scenes": [
    {
      "nodes": [
        0
      ],
      "name": "SM_SkySphere"
    }
  ]
}
